# xmcd
#
# Track frame offsets: 
#        150
#        6750
#        33862
#        50100
#        72716
#        76759
#        99268
#        120840
#        140899
#        166460
#        186187
#        200811
#        223571
#        247430
#
# Disc length: 4678 seconds
#
# Revision: 0
# Processed by: cddbd v1.5.2PL0 Copyright (c) Steve Scherf et al.
# Submitted via: ExactAudioCopy v0.99pb4
#
DISCID=cf12440e
DTITLE=Extended Famm - Happy Fuck You Songs
DYEAR=2002
DGENRE=Rap
TTITLE0=Intro
TTITLE1=The Evil That Pens Do
TTITLE2=Line Drop
TTITLE3=FYIRB (Remix)
TTITLE4=Pause
TTITLE5=Good Combination
TTITLE6=Velocity
TTITLE7=How U Doin? (feat Mecca)
TTITLE8=Celly
TTITLE9=Murder in the Verse Degree
TTITLE10=Pebble Jam
TTITLE11=Obligatory Posse Cut (feat Breez Evahflowin, Deacon the Villa
TTITLE11=in, Kno, Mecca, iCON The Mic King, Pumpkinhead, GMS, Elite, K
TTITLE11=ameel
TTITLE12=Fin
TTITLE13=Enhanced
EXTD=
EXTT0=
EXTT1=
EXTT2=
EXTT3=
EXTT4=
EXTT5=
EXTT6=
EXTT7=
EXTT8=
EXTT9=
EXTT10=
EXTT11=
EXTT12=
EXTT13=
PLAYORDER=
